<svg width="116" height="35" viewBox="0 0 116 35" fill="none" xmlns="http://www.w3.org/2000/svg">
<path d="M15.896 10.64C15.4907 9.89333 14.904 9.328 14.136 8.944C13.3893 8.53867 12.504 8.336 11.48 8.336C9.70933 8.336 8.29067 8.92267 7.224 10.096C6.15733 11.248 5.624 12.7947 5.624 14.736C5.624 16.8053 6.17867 18.4267 7.288 19.6C8.41867 20.752 9.96533 21.328 11.928 21.328C13.272 21.328 14.4027 20.9867 15.32 20.304C16.2587 19.6213 16.9413 18.64 17.368 17.36H10.424V13.328H22.328V18.416C21.9227 19.7813 21.2293 21.0507 20.248 22.224C19.288 23.3973 18.0613 24.3467 16.568 25.072C15.0747 25.7973 13.3893 26.16 11.512 26.16C9.29333 26.16 7.30933 25.68 5.56 24.72C3.832 23.7387 2.47733 22.384 1.496 20.656C0.536 18.928 0.056 16.9547 0.056 14.736C0.056 12.5173 0.536 10.544 1.496 8.816C2.47733 7.06667 3.832 5.712 5.56 4.752C7.288 3.77067 9.26133 3.28 11.48 3.28C14.168 3.28 16.4293 3.93067 18.264 5.232C20.12 6.53333 21.3467 8.336 21.944 10.64H15.896ZM33.487 26.256C31.7377 26.256 30.159 25.8827 28.751 25.136C27.3643 24.3893 26.2657 23.3227 25.455 21.936C24.6657 20.5493 24.271 18.928 24.271 17.072C24.271 15.2373 24.6763 13.6267 25.487 12.24C26.2977 10.832 27.407 9.75467 28.815 9.008C30.223 8.26133 31.8017 7.888 33.551 7.888C35.3003 7.888 36.879 8.26133 38.287 9.008C39.695 9.75467 40.8043 10.832 41.615 12.24C42.4257 13.6267 42.831 15.2373 42.831 17.072C42.831 18.9067 42.415 20.528 41.583 21.936C40.7723 23.3227 39.6523 24.3893 38.223 25.136C36.815 25.8827 35.2363 26.256 33.487 26.256ZM33.487 21.52C34.5323 21.52 35.4177 21.136 36.143 20.368C36.8897 19.6 37.263 18.5013 37.263 17.072C37.263 15.6427 36.9003 14.544 36.175 13.776C35.471 13.008 34.5963 12.624 33.551 12.624C32.4843 12.624 31.599 13.008 30.895 13.776C30.191 14.5227 29.839 15.6213 29.839 17.072C29.839 18.5013 30.1803 19.6 30.863 20.368C31.567 21.136 32.4417 21.52 33.487 21.52Z" fill="white"/>
<path d="M48.454 6.288C47.494 6.288 46.7047 6.01067 46.086 5.456C45.4887 4.88 45.19 4.176 45.19 3.344C45.19 2.49067 45.4887 1.78667 46.086 1.232C46.7047 0.655998 47.494 0.367998 48.454 0.367998C49.3927 0.367998 50.1607 0.655998 50.758 1.232C51.3767 1.78667 51.686 2.49067 51.686 3.344C51.686 4.176 51.3767 4.88 50.758 5.456C50.1607 6.01067 49.3927 6.288 48.454 6.288ZM51.206 28.304C51.206 30.5013 50.6513 32.08 49.542 33.04C48.4327 34.0213 46.886 34.512 44.902 34.512H42.758V29.872H44.07C44.6673 29.872 45.094 29.7547 45.35 29.52C45.606 29.2853 45.734 28.9013 45.734 28.368V8.144H51.206V28.304ZM73.3803 8.144L62.1803 34.48H56.2923L60.3883 25.392L53.1242 8.144H59.2363L63.3643 19.312L67.4603 8.144H73.3803ZM98.143 7.952C100.362 7.952 102.122 8.624 103.423 9.968C104.746 11.312 105.407 13.1787 105.407 15.568V26H99.967V16.304C99.967 15.152 99.6577 14.2667 99.039 13.648C98.4417 13.008 97.6097 12.688 96.543 12.688C95.4763 12.688 94.6337 13.008 94.015 13.648C93.4177 14.2667 93.119 15.152 93.119 16.304V26H87.679V16.304C87.679 15.152 87.3697 14.2667 86.751 13.648C86.1537 13.008 85.3217 12.688 84.255 12.688C83.1883 12.688 82.3457 13.008 81.727 13.648C81.1297 14.2667 80.831 15.152 80.831 16.304V26H75.359V8.144H80.831V10.384C81.3857 9.63733 82.111 9.05067 83.007 8.624C83.903 8.176 84.9163 7.952 86.047 7.952C87.391 7.952 88.5857 8.24 89.631 8.816C90.6977 9.392 91.5297 10.2133 92.127 11.28C92.7457 10.2987 93.5883 9.49867 94.655 8.88C95.7217 8.26133 96.8843 7.952 98.143 7.952ZM111.794 26.256C110.834 26.256 110.045 25.9787 109.426 25.424C108.829 24.848 108.53 24.144 108.53 23.312C108.53 22.4587 108.829 21.744 109.426 21.168C110.045 20.592 110.834 20.304 111.794 20.304C112.733 20.304 113.501 20.592 114.098 21.168C114.717 21.744 115.026 22.4587 115.026 23.312C115.026 24.144 114.717 24.848 114.098 25.424C113.501 25.9787 112.733 26.256 111.794 26.256Z" fill="#F15D44"/>
</svg>
